<?xml version="1.0" encoding="UTF-8"?>
<!DOCTYPE svg PUBLIC "-//W3C//DTD SVG 1.1//EN" "http://www.w3.org/Graphics/SVG/1.1/DTD/svg11.dtd">
<!-- Creator: CorelDRAW 2019 (64-Bit) -->
<svg xmlns="http://www.w3.org/2000/svg" xml:space="preserve" width="43.3492mm" height="43.3492mm" version="1.1" style="shape-rendering:geometricPrecision; text-rendering:geometricPrecision; image-rendering:optimizeQuality; fill-rule:evenodd; clip-rule:evenodd"
viewBox="0 0 4334.92 4334.92"
 xmlns:xlink="http://www.w3.org/1999/xlink"
 xmlns:xodm="http://www.corel.com/coreldraw/odm/2003">
 <defs>
  <style type="text/css">
   <![CDATA[
    .fil0 {fill:#E3757A}
   ]]>
  </style>
 </defs>
 <g id="Слой_x0020_1">
  <metadata id="CorelCorpID_0Corel-Layer"/>
  <path class="fil0" d="M2021 3947.67c-384.13,358.37 -861.56,-96.68 -1925.18,308.87 306.16,-1005.93 -31.12,-1622.14 357.58,-1975.59 846.43,-769.42 2409.71,900.22 1567.6,1666.72zm-375.6 -1946.29c287.49,156.58 617.59,497.17 752.08,797.12l263.03 -258.9c-233.8,-256.46 -558.86,-586.61 -779.12,-792.21l0 0c-72.89,71.14 -223.16,224.92 -235.99,253.99zm1015.11 538.22c-233.8,-256.46 -558.86,-586.61 -779.12,-792.21 188.05,-183.85 2027.71,-1900.03 2349.43,-1644.19 386.64,307.57 -1301.14,2177.68 -1570.31,2436.4l0 0z"/>
 </g>
</svg>
